
<svg width="15px" height="13px" viewBox="0 0 15 13" version="1.1" xmlns="http://www.w3.org/2000/svg" xmlns:xlink="http://www.w3.org/1999/xlink">
    <g id="云教室" stroke="none" stroke-width="1" fill="none" fill-rule="evenodd">
        <g id="添加教室" transform="translate(-15.000000, -94.000000)" fill-rule="nonzero" fill="#6C798E">
            <g id="教室管理-copy-2" transform="translate(15.000000, 94.000000)">
                <path d="M13.2149848,12.9998716 L1.80024365,12.9998716 C0.817827411,12.9998716 0.0147411168,12.1534914 0.0147411168,11.1181136 L0.0147411168,1.88188642 C0.0147411168,0.846508642 0.817827411,0.000128395061 1.80024365,0.000128395061 L13.2071878,0.000128395061 C14.1896041,0.000128395061 14.9926904,0.846508642 14.9926904,1.88188642 L14.9926904,11.1181136 C15.0004873,12.1534914 14.197401,12.9998716 13.2149848,12.9998716 L13.2149848,12.9998716 Z M1.80024365,1.02728889 C1.3480203,1.02728889 0.989360406,1.41350123 0.989360406,1.88188642 L0.989360406,11.1181136 C0.989360406,11.5864988 1.35581726,11.9727111 1.80024365,11.9727111 L13.2071878,11.9727111 C13.6516142,11.9727111 14.0180711,11.5864988 14.0180711,11.1181136 L14.0180711,1.88188642 C14.0180711,1.40528395 13.6516142,1.02728889 13.2071878,1.02728889 L1.80024365,1.02728889 Z" id="Shape"></path>
                <path d="M4.29526904,3.49247407 L2.45518782,3.49247407 C2.18229442,3.49247407 1.97177665,3.26239012 1.97177665,2.98300247 C1.97177665,2.70361481 2.19009137,2.47353086 2.45518782,2.47353086 L4.29526904,2.47353086 C4.56816244,2.47353086 4.7786802,2.70361481 4.7786802,2.98300247 C4.7786802,3.26239012 4.56036548,3.49247407 4.29526904,3.49247407 L4.29526904,3.49247407 Z M12.5600406,3.49247407 L10.7199594,3.49247407 C10.447066,3.49247407 10.2365482,3.26239012 10.2365482,2.98300247 C10.2365482,2.70361481 10.4548629,2.47353086 10.7199594,2.47353086 L12.5600406,2.47353086 C12.832934,2.47353086 13.0434518,2.70361481 13.0434518,2.98300247 C13.0434518,3.26239012 12.8251371,3.49247407 12.5600406,3.49247407 L12.5600406,3.49247407 Z M8.42765482,3.49247407 L6.5875736,3.49247407 C6.3146802,3.49247407 6.10416244,3.26239012 6.10416244,2.98300247 C6.10416244,2.70361481 6.32247716,2.47353086 6.5875736,2.47353086 L8.42765482,2.47353086 C8.70054822,2.47353086 8.91106599,2.70361481 8.91106599,2.98300247 C8.91106599,3.26239012 8.69275127,3.49247407 8.42765482,3.49247407 L8.42765482,3.49247407 Z M6.29908629,10.7154667 C6.09636548,10.7154667 5.89364467,10.6579457 5.71431472,10.551121 C5.34785787,10.3292543 5.12954315,9.92660741 5.12954315,9.48287407 L5.12954315,5.7850963 C5.12954315,5.34136296 5.34785787,4.93871605 5.71431472,4.71684938 C6.08077157,4.49498272 6.51740102,4.49498272 6.89165482,4.71684938 L9.93246701,6.56573827 C10.2989239,6.78760494 10.5172386,7.19025185 10.5172386,7.63398519 C10.5172386,8.07771852 10.2989239,8.48036543 9.93246701,8.7022321 L6.89165482,10.551121 C6.70452792,10.6579457 6.50180711,10.7154667 6.29908629,10.7154667 Z M6.29908629,5.56322963 C6.25230457,5.56322963 6.22111675,5.5796642 6.19772589,5.59609877 C6.15874112,5.62075062 6.09636548,5.67005432 6.09636548,5.77687901 L6.09636548,9.47465679 C6.09636548,9.58148148 6.15874112,9.63078519 6.19772589,9.65543704 C6.23671066,9.68008889 6.30688325,9.70474074 6.4004467,9.65543704 L9.44125888,7.80654815 C9.52702538,7.75724444 9.54261929,7.66685432 9.54261929,7.6257679 C9.54261929,7.5764642 9.52702538,7.49429136 9.44125888,7.44498765 L6.4004467,5.59609877 C6.36146193,5.56322963 6.33027411,5.56322963 6.29908629,5.56322963 L6.29908629,5.56322963 Z" id="Shape"></path>
            </g>
        </g>
    </g>
</svg>