
<svg width="45px" height="31px" viewBox="0 0 45 31" version="1.1" xmlns="http://www.w3.org/2000/svg" xmlns:xlink="http://www.w3.org/1999/xlink">
    <g id="首页" stroke="none" stroke-width="1" fill="none" fill-rule="evenodd">
        <g id="首页概览" transform="translate(-337.000000, -13.000000)" fill="#FFFFFF">
            <g id="云教室-copy-2" transform="translate(337.000000, 13.000000)">
                <path d="M27,29 L35.4511877,29 C39.5893996,29 42.9545455,25.6421356 42.9545455,21.5 C42.9545455,17.5504046 39.8877604,14.3013859 36,14.0198039 L36,12.0130316 C41.0144549,12.2739601 45,16.4205649 45,21.5 C45,26.7467051 40.7462445,31 35.4979072,31 L9.50209285,31 C4.25423188,31 0,26.7478587 0,21.5 C0,16.2532949 4.25375554,12 9.50209285,12 L10,12 L10,14 L9.54881235,14 C5.41060037,14 2.04545455,17.3578644 2.04545455,21.5 C2.04545455,25.6337072 5.40482226,29 9.54881235,29 L19,29 L19,31 L27,31 L27,29 Z" id="Combined-Shape"></path>
                <path d="M12,11 C12,4.92486775 16.9248678,0 23,0 C29.0751322,0 34,4.92486775 34,11 C34,17.0751322 29.0751322,22 23,22 L23,20 C27.9705627,20 32,15.9705627 32,11 C32,6.02943725 27.9705627,2 23,2 C18.0294373,2 14,6.02943725 14,11 L12,11 Z" id="Combined-Shape"></path>
                <rect id="Rectangle-5-Copy" x="22" y="20" width="2" height="6" rx="1"></rect>
                <circle id="Oval-3-Copy" cx="13" cy="11" r="1"></circle>
                <circle id="Oval-3-Copy-9" cx="36" cy="13" r="1"></circle>
                <circle id="Oval-3-Copy-10" cx="10" cy="13" r="1"></circle>
                <circle id="Oval-3-Copy-11" cx="23" cy="30" r="1"></circle>
                <circle id="Oval-3-Copy-12" cx="19" cy="30" r="1"></circle>
                <circle id="Oval-3-Copy-13" cx="27" cy="30" r="1"></circle>
            </g>
        </g>
    </g>
</svg>