
<svg width="15px" height="15px" viewBox="0 0 15 15" version="1.1" xmlns="http://www.w3.org/2000/svg" xmlns:xlink="http://www.w3.org/1999/xlink">
    <g id="首页" stroke="none" stroke-width="1" fill="none" fill-rule="evenodd">
        <g id="首页概览" transform="translate(-15.000000, -93.000000)" fill-rule="nonzero" fill="#6C798E">
            <g id="控制台" transform="translate(15.000000, 93.000000)">
                <path d="M14.021775,0 L0.978225,0 C0.437925,0 0,0.438353079 0,0.979181232 L0,10.1188317 C0,10.6593595 0.438225,11.0980129 0.978225,11.0980129 L14.021775,11.0980129 C14.562,11.0980129 15,10.6596598 15,10.1188317 L15,0.979181232 C15,0.438353079 14.562075,0 14.021775,0 Z M14.150325,9.87536891 C14.1502836,10.0589863 14.001588,10.2078272 13.81815,10.2078686 L1.181775,10.2078686 C0.998336966,10.2078272 0.849641403,10.0589863 0.8496,9.87536891 L0.8496,1.22046686 C0.849641403,1.03684951 0.998336966,0.888008599 1.181775,0.887967155 L13.818225,0.887967155 C14.001663,0.888008599 14.1503586,1.03684951 14.1504,1.22046686 L14.150325,9.87536891 Z M13.444275,14.9897384 L1.705725,14.9897384 C1.47790754,14.9897384 1.293225,14.8048753 1.293225,14.5768352 C1.293225,14.348795 1.47790754,14.163932 1.705725,14.163932 L13.444275,14.163932 C13.6720925,14.163932 13.856775,14.348795 13.856775,14.5768352 C13.856775,14.8048753 13.6720925,14.9897384 13.444275,14.9897384 L13.444275,14.9897384 Z M11.012475,13.1629044 L4.137525,13.1629044 C3.90970754,13.1629044 3.725025,12.9780413 3.725025,12.7500012 C3.725025,12.521961 3.90970754,12.3370979 4.137525,12.3370979 L11.01255,12.3370979 C11.2403675,12.3371187 11.4250332,12.5219986 11.4250125,12.7500387 C11.4249918,12.9780789 11.2402925,13.1629251 11.012475,13.1629044 L11.012475,13.1629044 Z" id="Shape"></path>
                <path d="M3.1125,8.85865103 C2.88468254,8.85865103 2.7,8.67378796 2.7,8.4457478 L2.7,5.54896891 C2.7,5.32092876 2.88468254,5.13606569 3.1125,5.13606569 C3.34031746,5.13606569 3.525,5.32092876 3.525,5.54896891 L3.525,8.4457478 C3.525,8.55525654 3.4815403,8.6602801 3.40418155,8.73771447 C3.32682279,8.81514885 3.2219018,8.85865103 3.1125,8.85865103 L3.1125,8.85865103 Z M5.387475,8.85865103 C5.2780732,8.85865103 5.17315221,8.81514885 5.09579345,8.73771447 C5.0184347,8.6602801 4.974975,8.55525654 4.974975,8.4457478 L4.974975,3.6160563 C4.974975,3.38801615 5.15965754,3.20315308 5.387475,3.20315308 C5.61529246,3.20315308 5.799975,3.38801615 5.799975,3.6160563 L5.799975,8.4457478 C5.799975,8.67378796 5.61529246,8.85865103 5.387475,8.85865103 L5.387475,8.85865103 Z M11.387475,8.85865103 C11.1596575,8.85865103 10.974975,8.67378796 10.974975,8.4457478 L10.974975,4.49186158 C10.974975,4.26382143 11.1596575,4.07895836 11.387475,4.07895836 C11.6152925,4.07895836 11.799975,4.26382143 11.799975,4.49186158 L11.799975,8.4457478 C11.799975,8.67378796 11.6152925,8.85865103 11.387475,8.85865103 L11.387475,8.85865103 Z M8.2011,8.85865103 L8.199075,8.85865103 C8.08967282,8.85813457 7.98495656,8.81413631 7.90796324,8.73633561 C7.83096991,8.65853491 7.7880066,8.55330501 7.788525,8.44379589 L7.818225,2.18778651 C7.81933921,1.96055544 8.00363812,1.77691507 8.23065,1.77683519 L8.232675,1.77683519 C8.46047618,1.77795202 8.64426302,1.9636661 8.643225,2.19169032 L8.613525,8.44769971 C8.61245178,8.67494794 8.42812884,8.85861225 8.2011,8.85865103 L8.2011,8.85865103 Z" id="Shape"></path>
            </g>
        </g>
    </g>
</svg>