
<svg width="16px" height="15px" viewBox="0 0 16 15" version="1.1" xmlns="http://www.w3.org/2000/svg" xmlns:xlink="http://www.w3.org/1999/xlink">
    <g id="云教室" stroke="none" stroke-width="1" fill="none" fill-rule="evenodd">
        <g id="添加教室" transform="translate(-15.000000, -211.000000)" fill="#6C798E">
            <g id="开始上课-copy" transform="translate(15.000000, 211.000000)">
                <path d="M11.3147454,0.852149792 L15.6073809,0.852149792 C16.130873,0.852149792 16.130873,0 15.6073809,0 L11.3147454,0 C10.6865548,0 10.6865548,0.852149792 11.3147454,0.852149792 Z M13.9322061,2.6629681 C13.3040155,2.6629681 13.3040155,1.81081831 13.9322061,1.81081831 L15.6073809,1.81081831 C16.130873,1.81081831 16.130873,2.6629681 15.6073809,2.6629681 L13.9322061,2.6629681 Z M5.9492236,8.52981969 C3.7469673,8.52981969 1.96168582,6.71349916 1.96168582,4.47295423 C1.96168582,2.2324093 3.7469673,0.416088766 5.9492236,0.416088766 C8.1514799,0.416088766 9.93676137,2.2324093 9.93676137,4.47295423 C9.93676137,6.71349916 8.1514799,8.52981969 5.9492236,8.52981969 Z M5.9492236,7.60737826 C7.65073555,7.60737826 9.03008351,6.20404882 9.03008351,4.47295423 C9.03008351,2.74185964 7.65073555,1.3385302 5.9492236,1.3385302 C4.24771165,1.3385302 2.86836368,2.74185964 2.86836368,4.47295423 C2.86836368,6.20404882 4.24771165,7.60737826 5.9492236,7.60737826 Z" id="Fill-1"></path>
                <path d="M11.9368582,14.4865465 C12.3553512,10.9714286 9.63514687,7.77586685 6.18257982,7.5628294 C2.73001277,7.45631068 -0.0948148148,10.5453537 0.00980842912,14.0604716 L0.00980842912,14.5930652 C0.114431673,15.1256588 0.951417625,15.1256588 0.846794381,14.5930652 C0.637547893,12.9952843 1.05604087,11.5040222 2.10227331,10.3323162 C3.14850575,9.16061026 4.50860792,8.52149792 5.97333333,8.52149792 C7.43805875,8.52149792 8.79816092,9.16061026 9.84439336,10.2257975 C10.8906258,11.3975035 11.3091188,12.9952843 11.0998723,14.4865465 C10.995249,15.1256588 11.832235,15.1256588 11.9368582,14.4865465" id="Fill-2"></path>
                <path d="M12.0414815,14.4865465 L15.8079183,4.58030513 C15.8079183,4.47378641 15.9125415,4.47378641 15.9125415,4.36726768 C16.121788,3.83467406 15.284802,3.62163662 15.0755556,4.15423024 L11.3091188,14.0604716 C11.3091188,14.1669903 11.2044955,14.1669903 11.2044955,14.273509 C10.995249,14.8061026 11.832235,15.0191401 12.0414815,14.4865465" id="Fill-3"></path>
            </g>
        </g>
    </g>
</svg>