
<svg width="17px" height="18px" viewBox="0 0 17 18" version="1.1" xmlns="http://www.w3.org/2000/svg" xmlns:xlink="http://www.w3.org/1999/xlink">
    <g id="首页" stroke="none" stroke-width="1" fill="none" fill-rule="evenodd">
        <g id="首页概览" transform="translate(-1078.000000, -31.000000)" fill-rule="nonzero" fill="#FFFFFF">
            <g id="个人中心-copy" transform="translate(1078.000000, 31.000000)">
                <path d="M14.9226996,0 L2.15504926,0 C0.975871371,0 0,0.913678802 0,2.0657086 L0,15.9297913 C0,17.0818211 0.935210057,17.9954999 2.11438796,17.9954999 L14.8820383,17.9954999 C16.0612162,17.9954999 16.9964263,17.0818211 16.9964263,15.9297913 L16.9964263,2.0657086 C17.0370876,0.913678802 16.1018775,0 14.9226996,0 Z M16,16.2898172 C16,16.7075718 15.6551724,17 15.2672414,17 L1.73275861,17 C1.30172413,17 1,16.6657963 1,16.2898172 L1,1.71018276 C1,1.29242819 1.34482759,1 1.73275861,1 L15.2672414,1 C15.6982758,1 16,1.33420366 16,1.71018276 L16,16.2898172 Z" id="Shape"></path>
                <path d="M14,14.7687879 C14,15.0460905 13.7775223,15.2709486 13.5030052,15.2709486 C13.2284757,15.2709486 13.0059981,15.0460905 13.0059981,14.7687879 L13.0016298,14.7219143 C13.0016298,14.7020483 13.0052005,14.6829798 13.0071883,14.6635064 C12.6969025,12.4593688 10.8264997,10.8396293 8.5488614,10.8142169 C8.53059053,10.8146096 8.51310497,10.8170023 8.49483408,10.8170023 C8.4765632,10.8170023 8.45906538,10.8146218 8.44119943,10.8142169 C6.18978329,10.8396415 4.33724652,12.4232074 3.99558483,14.5892081 C4.00671424,14.6317257 4.01504595,14.6758261 4.01504595,14.7219021 L4.0198192,14.7691683 C4.0198192,15.0508392 3.79375852,15.2792926 3.51487305,15.2792926 C3.23636796,15.2792926 3.0099269,15.0508515 3.0099269,14.7691683 L3.00953424,14.7644073 L3,14.7644073 C3.00119025,14.7497072 3.00436832,14.7353997 3.00595123,14.7206995 C3.00595123,14.678587 3.01230738,14.6388671 3.02184162,14.5995277 C3.28045612,12.5678283 4.6284394,10.924652 6.4627053,10.217082 C5.39479775,9.5258195 4.69836938,8.30416172 4.69836938,6.90849502 C4.69836938,4.75004072 6.35862634,3 8.49522677,3 C10.6314345,3 12.2916792,4.75004072 12.2916792,6.90849502 C12.2916792,8.30375679 11.5960362,9.52502191 10.5285213,10.2162844 C12.3500749,10.9182959 13.691702,12.5423915 13.9650412,14.5538566 C13.983717,14.6066937 13.9960243,14.6627088 13.9960243,14.7219021 L14,14.7687879 L14,14.7687879 L14,14.7687879 Z M11.4188369,6.90968527 C11.4188369,5.2776506 10.1093832,3.95468703 8.49402424,3.95468703 C6.87866529,3.95468703 5.56921159,5.27804327 5.56921159,6.90968527 C5.56921159,8.54174447 6.87866527,9.86469579 8.49402424,9.86469579 C10.1089783,9.86469579 11.4188369,8.54174448 11.4188369,6.90968527 L11.4188369,6.90968527 L11.4188369,6.90968527 Z" id="Shape-Copy"></path>
            </g>
        </g>
    </g>
</svg>