
<svg width="34px" height="30px" viewBox="0 0 34 30" version="1.1" xmlns="http://www.w3.org/2000/svg" xmlns:xlink="http://www.w3.org/1999/xlink">
    <g id="首页" stroke="none" stroke-width="1" fill="none" fill-rule="evenodd">
        <g id="首页概览" transform="translate(-223.000000, -14.000000)" fill-rule="nonzero" fill="#FFFFFF">
            <path d="M256.605727,28.442256 L240.599998,14.238496 C240.282003,13.9205013 239.752012,13.9205013 239.434017,14.238496 L223.32229,28.442256 C223.004295,28.6542525 222.898297,29.0782453 223.110293,29.3962399 C223.216291,29.7142346 223.534286,30.0322292 223.958279,30.0322292 L227.032227,30.0322292 L227.032227,38.0880931 C227.032227,41.056043 229.470186,43.6 232.544134,43.6 L242.719962,43.6 L242.719962,43.6 C244.415933,43.6 245.899908,42.1160251 245.899908,40.4200537 L245.899908,33.8481647 C245.899908,32.0461952 244.521931,30.6682184 242.719962,30.6682184 L237.420051,30.6682184 C235.618082,30.6682184 234.240105,32.0461952 234.240105,33.8481647 L234.240105,38.0880931 C234.240105,38.6180842 234.664098,39.042077 235.194089,39.042077 C235.72408,39.042077 236.148073,38.6180842 236.148073,38.0880931 L236.148073,33.8481647 C236.148073,33.1061773 236.784062,32.470188 237.52605,32.470188 L242.82596,32.470188 C243.567948,32.470188 244.203937,33.1061773 244.203937,33.8481647 L244.203937,40.4200537 C244.203937,41.1620412 243.567948,41.7980304 242.82596,41.7980304 L232.438136,41.7980304 C230.42417,41.7980304 228.834196,40.2080573 228.834196,38.1940913 L228.834196,29.1842435 C228.834196,28.6542525 228.410204,28.2302596 227.880213,28.2302596 L226.290239,28.2302596 L239.964008,16.1464637 L253.637777,28.2302596 L252.047804,28.2302596 C251.517813,28.2302596 251.09382,28.6542525 251.09382,29.1842435 L251.09382,38.1940913 C251.09382,39.4660698 250.457831,40.6320501 249.397849,41.2680394 C248.973856,41.586034 248.867858,42.1160251 249.079854,42.5400179 C249.397849,42.9640107 249.92784,43.070009 250.351833,42.8580125 C251.941806,41.7980304 252.89579,40.1020591 252.89579,38.1940913 L252.89579,30.1382274 L255.969738,30.1382274 C256.393731,30.1382274 256.711725,29.926231 256.817724,29.5022381 C257.02972,29.0782453 256.923722,28.6542525 256.605727,28.442256 Z" id="Shape-Copy-2"></path>
        </g>
    </g>
</svg>