<?xml version="1.0" encoding="UTF-8"?>
<svg width="234px" height="445px" viewBox="0 0 234 445" version="1.1" xmlns="http://www.w3.org/2000/svg" xmlns:xlink="http://www.w3.org/1999/xlink">
    <!-- Generator: Sketch 42 (36781) - http://www.bohemiancoding.com/sketch -->
    <title>phone-4215e3</title>
    <desc>Created with Sketch.</desc>
    <defs></defs>
    <g id="直播服务" stroke="none" stroke-width="1" fill="none" fill-rule="evenodd">
        <g id="直播引导图" transform="translate(-201.000000, -140.000000)" fill-rule="nonzero">
            <g id="phone-4215e3" transform="translate(201.000000, 140.000000)">
                <path d="M203.852761,445 L30.1472393,445 C13.4973497,445 0,431.503581 0,414.854839 L0,30.1451613 C0,13.4964194 13.4973497,0 30.1472393,0 L203.852761,0 C220.50265,0 234,13.4964194 234,30.1451613 L234,414.854839 C234,431.503581 220.50265,445 203.852761,445 Z M231.846626,69.6209677 L2.15337423,69.6209677 L2.15337423,418.443548 L231.846626,418.443548 L231.846626,69.6209677 Z" id="Shape" fill="#C3CAD9"></path>
                <path d="M2,27 L231.693252,27 L231.693252,70.0645161 L2,70.0645161 L2,27 Z" id="Shape" fill="#333333"></path>
                <path d="M228.257669,35.1693548 L227.539877,35.1693548 L227.539877,36.6048387 L214.619632,36.6048387 L214.619632,30.8629032 L227.539877,30.8629032 L227.539877,32.2983871 L228.257669,32.2983871 L228.257669,35.1693548 Z" id="Shape" fill="#FFFFFF"></path>
                <path d="M215.337423,31.5806452 L226.822086,31.5806452 L226.822086,35.8870968 L215.337423,35.8870968 L215.337423,31.5806452 Z" id="Shape" fill="#333333"></path>
                <path d="M216.055215,32.2983871 L220.361963,32.2983871 L220.361963,35.1693548 L216.055215,35.1693548 L216.055215,32.2983871 Z" id="Shape" fill="#FFFFFF"></path>
                <path d="M22.2515337,35.1693548 C21.4583742,35.1693548 20.8159509,34.5269758 20.8159509,33.733871 C20.8159509,32.9407661 21.4583742,32.2983871 22.2515337,32.2983871 C23.0446933,32.2983871 23.6871166,32.9407661 23.6871166,33.733871 C23.6871166,34.5269758 23.0446933,35.1693548 22.2515337,35.1693548 Z M17.2269939,35.1693548 C16.4338344,35.1693548 15.791411,34.5269758 15.791411,33.733871 C15.791411,32.9407661 16.4338344,32.2983871 17.2269939,32.2983871 C18.0201534,32.2983871 18.6625767,32.9407661 18.6625767,33.733871 C18.6625767,34.5269758 18.0201534,35.1693548 17.2269939,35.1693548 Z M12.202454,35.1693548 C11.4092945,35.1693548 10.7668712,34.5269758 10.7668712,33.733871 C10.7668712,32.9407661 11.4092945,32.2983871 12.202454,32.2983871 C12.9956135,32.2983871 13.6380368,32.9407661 13.6380368,33.733871 C13.6380368,34.5269758 12.9956135,35.1693548 12.202454,35.1693548 Z M7.17791411,35.1693548 C6.3847546,35.1693548 5.74233129,34.5269758 5.74233129,33.733871 C5.74233129,32.9407661 6.3847546,32.2983871 7.17791411,32.2983871 C7.97107362,32.2983871 8.61349693,32.9407661 8.61349693,33.733871 C8.61349693,34.5269758 7.97107362,35.1693548 7.17791411,35.1693548 Z" id="Shape" fill="#FFFFFF"></path>
                <path d="M110.180982,31.5806452 L123.819018,31.5806452 C124.810288,31.5806452 125.613497,32.3837984 125.613497,33.375 L125.613497,34.0927419 C125.613497,35.0839435 124.810288,35.8870968 123.819018,35.8870968 L110.180982,35.8870968 C109.189712,35.8870968 108.386503,35.0839435 108.386503,34.0927419 L108.386503,33.375 C108.386503,32.3837984 109.189712,31.5806452 110.180982,31.5806452 Z" id="Shape" fill="#FFFFFF" opacity="0.2"></path>
            </g>
        </g>
    </g>
</svg>