
<svg width="32px" height="30px" viewBox="0 0 32 30" version="1.1" xmlns="http://www.w3.org/2000/svg" xmlns:xlink="http://www.w3.org/1999/xlink">
    <g id="首页" stroke="none" stroke-width="1" fill="none" fill-rule="evenodd">
        <g id="首页概览" transform="translate(-460.000000, -14.000000)" fill-rule="nonzero" fill="#FFFFFF">
            <g id="直播服务" transform="translate(460.000000, 14.000000)">
                <path d="M25.6130242,29.9705238 L6.38870254,29.9705238 C2.87545893,29.9705238 0.0171469804,26.6335425 0.0171469804,22.5319558 L0.0171469804,7.47066961 C0.0171469804,3.36929503 2.87545893,0.0325259669 6.38870254,0.0325259669 L25.6130242,0.0325259669 C29.126482,0.0325259669 31.9850081,3.36929503 31.9850081,7.47066961 L31.9850081,22.532168 C31.9850081,26.6337547 29.126482,29.9705238 25.6130242,29.9705238 L25.6130242,29.9705238 Z M6.38870254,2.03252597 C3.82016251,2.03252597 1.73050646,4.57849698 1.73050646,7.70795028 L1.73050646,22.5976546 C1.73050646,25.7273176 3.82016251,28.2734983 6.38870254,28.2734983 L25.6130242,28.2734983 C28.1817784,28.2734983 30.2716486,25.7273176 30.2716486,22.5976546 L30.2716486,7.70795028 C30.2716486,4.57849698 28.1817784,2.03252597 25.6130242,2.03252597 L6.38870254,2.03252597 L6.38870254,2.03252597 Z" id="Shape"></path>
                <path d="M12.8821208,21.4665149 C12.4090876,21.4662808 12.0256774,21.0864783 12.025441,20.6178961 L12.025441,9.73075359 C12.0251833,9.42746408 12.1884225,9.14711781 12.4535759,8.99547633 C12.7187293,8.84383486 13.045442,8.84397723 13.3104607,8.99584972 L22.8292434,14.4395271 C23.0940506,14.5912954 23.257118,14.8713748 23.257118,15.1744309 C23.257118,15.4774871 23.0940506,15.7575665 22.8292434,15.9093348 L13.3104607,21.3528 C13.1802622,21.4273639 13.0325121,21.4665884 12.8821208,21.4665149 L12.8821208,21.4665149 Z M13.7388005,11.2005613 L13.7388005,19.1480884 L20.6873299,15.1744309 L13.7388005,11.2005613 L13.7388005,11.2005613 Z" id="Shape"></path>
            </g>
        </g>
    </g>
</svg>