
<svg width="33px" height="31px" viewBox="0 0 33 31" version="1.1" xmlns="http://www.w3.org/2000/svg" xmlns:xlink="http://www.w3.org/1999/xlink">
    <g id="首页" stroke="none" stroke-width="1" fill="none" fill-rule="evenodd">
        <g id="首页概览" transform="translate(-1089.000000, -339.000000)" fill-rule="nonzero" fill="#C3CAD9">
            <g id="直播-6" transform="translate(1089.000000, 339.000000)">
                <g id="Group">
                    <path d="M30.25011,5.48693446 L20.73324,5.48693446 L22.81983,1.3435518 C22.9663178,1.05262204 22.9453775,0.706187261 22.7648971,0.434746094 C22.5844167,0.163304927 22.2718153,0.00809574572 21.9448471,0.0275843496 C21.6178788,0.0470729534 21.3262178,0.23829856 21.17973,0.52922833 L18.68328,5.48693446 L14.31672,5.48693446 L11.81994,0.528572939 C11.6733343,0.23770171 11.3815958,0.0465926557 11.0546196,0.027234711 C10.7276435,0.00787676641 10.4151051,0.163210864 10.2347346,0.434724149 C10.0543642,0.706237434 10.0335643,1.05268058 10.18017,1.3435518 L12.26676,5.48758985 L2.74989,5.48758985 C1.2319749,5.48921498 0.00181872455,6.7106342 0,8.21794926 L0,28.2437526 C0.00163690239,29.7511957 1.23184623,30.9728143 2.74989,30.9744397 L30.25011,30.9744397 C31.7681538,30.9728143 32.9983631,29.7511957 33,28.2437526 L33,8.21794926 C32.998545,6.71037825 31.7682825,5.48856025 30.25011,5.48693446 L30.25011,5.48693446 Z M31.16685,28.2434249 C31.166486,28.7460411 30.7562607,29.1534017 30.25011,29.1537632 L2.74989,29.1537632 C2.24373933,29.1534017 1.83351401,28.7460411 1.83315,28.2434249 L1.83315,8.21794926 C1.83351401,7.71533312 2.24373933,7.30797246 2.74989,7.30761099 L30.25011,7.30761099 C30.7562607,7.30797246 31.166486,7.71533312 31.16685,8.21794926 L31.16685,28.2434249 Z" id="Shape"></path>
                    <path d="M21.56946,17.4592918 L14.2362,12.9079281 C13.9536603,12.7322102 13.597312,12.7227189 13.3056928,12.8831441 C13.0140736,13.0435693 12.8331922,13.3486007 12.83337,13.6796512 L12.83337,22.7820507 C12.8331922,23.1131012 13.0140736,23.4181326 13.3056928,23.5785578 C13.597312,23.738983 13.9536603,23.7294917 14.2362,23.5537738 L21.56946,19.0024101 C21.8372832,18.8360912 21.9999671,18.5445275 21.9999671,18.230851 C21.9999671,17.9171744 21.8372832,17.6256107 21.56946,17.4592918 L21.56946,17.4592918 Z M14.66652,21.1393129 L14.66652,15.3220613 L19.35252,18.2306871 L14.66652,21.1393129 Z" id="Shape"></path>
                </g>
            </g>
        </g>
    </g>
</svg>