<?xml version="1.0" encoding="UTF-8"?>
<svg width="72px" height="72px" viewBox="0 0 72 72" version="1.1" xmlns="http://www.w3.org/2000/svg" xmlns:xlink="http://www.w3.org/1999/xlink">
    <!-- Generator: Sketch 42 (36781) - http://www.bohemiancoding.com/sketch -->
    <title>密码重置成功</title>
    <desc>Created with Sketch.</desc>
    <defs></defs>
    <g id="登录" stroke="none" stroke-width="1" fill="none" fill-rule="evenodd">
        <g id="重置成功" transform="translate(-573.000000, -315.000000)" fill-rule="nonzero" fill="#4F9DFF">
            <g id="密码重置成功" transform="translate(573.000000, 315.000000)">
                <path d="M36,72 C16.117749,72 2.4348735e-15,55.882251 0,36 C-2.4348735e-15,16.117749 16.117749,3.65231026e-15 36,0 C55.882251,-3.65231026e-15 72,16.117749 72,36 C72,55.882251 55.882251,72 36,72 L36,72 Z M36,1.125 C16.7390693,1.125 1.125,16.7390693 1.125,36 C1.125,55.2609307 16.7390693,70.875 36,70.875 C55.2609307,70.875 70.875,55.2609307 70.875,36 C70.875,26.7505749 67.2006802,17.8799822 60.660349,11.339651 C54.1200178,4.79931981 45.2494251,1.125 36,1.125 L36,1.125 Z M47.25,55.125 L24.75,55.125 C22.2647186,55.125 20.25,53.1102814 20.25,50.625 L20.25,37.125 C20.25,34.6397186 22.2647186,32.625 24.75,32.625 L27,32.625 L27,25.875 C27,20.9044373 31.0294373,16.875 36,16.875 C40.9705627,16.875 45,20.9044373 45,25.875 L45,32.625 L47.25,32.625 C49.7352814,32.625 51.75,34.6397186 51.75,37.125 L51.75,50.625 C51.75,53.1102814 49.7352814,55.125 47.25,55.125 Z M43.875,25.875 C43.875,21.5257576 40.3492424,18 36,18 C31.6507576,18 28.125,21.5257576 28.125,25.875 L28.125,32.625 L43.875,32.625 L43.875,25.875 Z M50.625,37.125 C50.625,35.261039 49.113961,33.75 47.25,33.75 L24.75,33.75 C22.886039,33.75 21.375,35.261039 21.375,37.125 L21.375,50.625 C21.375,52.488961 22.886039,54 24.75,54 L47.25,54 C49.113961,54 50.625,52.488961 50.625,50.625 L50.625,37.125 Z M34.806375,47.5875 C34.5867188,47.8070898 34.2306562,47.8070898 34.011,47.5875 L30.034125,43.610625 C29.8209531,43.3899119 29.8240018,43.0390773 30.0409771,42.8221021 C30.2579523,42.6051268 30.6087869,42.6020781 30.8295,42.81525 L34.40925,46.395 L41.1705,39.632625 C41.3117294,39.4863994 41.5208688,39.4277554 41.7175354,39.4792328 C41.9142019,39.5307103 42.0677897,39.6842981 42.1192672,39.8809646 C42.1707446,40.0776312 42.1121006,40.2867706 41.965875,40.428 L34.806375,47.5875 Z" id="Shape"></path>
            </g>
        </g>
    </g>
</svg>