<?xml version="1.0" encoding="UTF-8"?>
<svg width="18px" height="18px" viewBox="0 0 18 18" version="1.1" xmlns="http://www.w3.org/2000/svg" xmlns:xlink="http://www.w3.org/1999/xlink">
    <!-- Generator: Sketch 42 (36781) - http://www.bohemiancoding.com/sketch -->
    <title>消息</title>
    <desc>Created with Sketch.</desc>
    <defs></defs>
    <g id="首页" stroke="none" stroke-width="1" fill="none" fill-rule="evenodd">
        <g id="首页概览" transform="translate(-909.000000, -31.000000)" fill-rule="nonzero" fill="#FFFFFF">
            <g id="消息" transform="translate(909.000000, 31.000000)">
                <path d="M16.1790469,0 L2.02865625,0 C1.01671875,0 0,1.18048972 0,2.1946954 L0,13.0017473 C0,14.015953 1.01671875,14.6679726 2.02865625,14.6679726 L5.9985,14.6679726 L8.68359375,17.7610813 C8.7901875,17.8801175 8.94290625,17.9921019 9.10265625,17.9921019 C9.26240625,17.9921019 9.41470312,17.8589618 9.52171875,17.7393614 L12.2075156,14.6679726 L16.1790469,14.6679726 C17.1902812,14.6679726 18,14.015953 18,13.0017473 L18,2.1946954 C18,1.18048972 17.1902812,0 16.1790469,0 Z M16.875,13.0017473 C16.875,13.3934104 16.5695625,13.539667 16.1790469,13.539667 L11.9563594,13.539667 C11.7964687,13.539667 11.6443125,13.6943859 11.5372969,13.8138452 L9.10265625,16.582143 L6.66914062,13.7924074 C6.5626875,13.6728071 6.40996875,13.539667 6.25007812,13.539667 L2.02851563,13.539667 C1.63757812,13.539667 1.125,13.3934104 1.125,13.0017473 L1.125,2.1946954 C1.125,1.80275024 1.63757812,1.12830558 2.02865625,1.12830558 L16.1790469,1.12830558 C16.5695625,1.12830558 16.875,1.80275024 16.875,2.1946954 L16.875,13.0017473 Z" id="Shape"></path>
                <path d="M14.4102656,4.51322233 L3.93370312,4.51322233 C3.62278125,4.51322233 3.37120312,4.76582174 3.37120312,5.07737512 C3.37120312,5.3889285 3.62278125,5.64152791 3.93370312,5.64152791 L14.4102656,5.64152791 C14.7211875,5.64152791 14.9727656,5.3889285 14.9727656,5.07737512 C14.9727656,4.76582174 14.7211875,4.51322233 14.4102656,4.51322233 Z M9.2784375,8.46229187 L3.93370312,8.46229187 C3.62278125,8.46229187 3.37120312,8.71489128 3.37120312,9.02644466 C3.37120312,9.33799804 3.62278125,9.59059745 3.93370312,9.59059745 L9.2784375,9.59059745 C9.58935937,9.59059745 9.8409375,9.33799804 9.8409375,9.02644466 C9.8409375,8.71489128 9.58935937,8.46229187 9.2784375,8.46229187 Z" id="Shape"></path>
            </g>
        </g>
    </g>
</svg>