<?xml version="1.0" encoding="UTF-8"?>
<svg width="17px" height="18px" viewBox="0 0 17 18" version="1.1" xmlns="http://www.w3.org/2000/svg" xmlns:xlink="http://www.w3.org/1999/xlink">
    <!-- Generator: Sketch 42 (36781) - http://www.bohemiancoding.com/sketch -->
    <title>账户</title>
    <desc>Created with Sketch.</desc>
    <defs></defs>
    <g id="首页" stroke="none" stroke-width="1" fill="none" fill-rule="evenodd">
        <g id="首页概览" transform="translate(-995.000000, -31.000000)" fill-rule="nonzero" fill="#FFFFFF">
            <g id="账户" transform="translate(995.000000, 31.000000)">
                <path d="M14.924685,0 L2.15703467,0 C0.977856784,0 0.00198541251,0.913678802 0.00198541251,2.0657086 L0.00198541251,15.9297913 C0.00198541251,17.0818211 0.93719547,17.9954999 2.11637337,17.9954999 L14.8840237,17.9954999 C16.0632016,17.9954999 16.9984117,17.0818211 16.9984117,15.9297913 L16.9984117,2.0657086 C17.039073,0.913678802 16.1038629,0 14.924685,0 Z M16.0019854,16.2898172 C16.0019854,16.7075718 15.6571578,17 15.2692268,17 L1.73474403,17 C1.30370955,17 1.00198541,16.6657963 1.00198541,16.2898172 L1.00198541,1.71018276 C1.00198541,1.29242819 1.346813,1 1.73474403,1 L15.2692268,1 C15.7002613,1 16.0019854,1.33420366 16.0019854,1.71018276 L16.0019854,16.2898172 Z" id="Shape"></path>
                <path d="M12.1190548,10.2888178 L9.02879553,10.2888178 L9.02879553,9.41486418 L12.1190548,9.41486418 C12.403684,9.41486418 12.6069905,9.17651318 12.6069905,8.9381622 C12.6069905,8.69981122 12.3630227,8.46146022 12.1190548,8.46146022 L9.63871513,8.46146022 L12.0783935,5.00537084 C12.1597161,4.88619534 12.2003775,4.76701984 12.1597161,4.64784436 C12.1190548,4.52866887 12.0783935,4.40949336 11.9564096,4.33004303 C11.8344257,4.2505927 11.7124418,4.21086753 11.5904579,4.2505927 C11.4684739,4.29031788 11.34649,4.33004303 11.2651674,4.44921853 L8.54085985,8.26283438 L5.81655229,4.40949334 C5.73522968,4.29031784 5.61324576,4.21086751 5.49126183,4.21086751 C5.36927791,4.17114234 5.24729399,4.21086751 5.12531008,4.29031784 C5.00332616,4.36976817 4.92200355,4.48894367 4.92200355,4.60811917 C4.88134223,4.72729467 4.92200355,4.88619532 5.00332616,4.96564565 L7.44300456,8.42173503 L4.96266484,8.42173503 C4.6780357,8.42173503 4.47472917,8.66008603 4.47472917,8.89843701 C4.47472917,9.13678799 4.71869701,9.37513899 4.96266484,9.37513899 L8.05292416,9.37513899 L8.05292416,10.2490926 L4.96266484,10.2490926 C4.6780357,10.2490926 4.47472917,10.4874436 4.47472917,10.7257946 C4.47472917,10.9641456 4.71869701,11.2024966 4.96266484,11.2024966 L8.05292416,11.2024966 L8.05292416,13.2682052 C8.05292416,13.5462813 8.296892,13.7449072 8.54085983,13.7449072 C8.78482766,13.7449072 9.02879551,13.5065562 9.02879551,13.2682052 L9.02879551,11.2024966 L12.1190548,11.2024966 C12.403684,11.2024966 12.6069905,10.9641456 12.6069905,10.7257946 C12.6069905,10.4874436 12.403684,10.2888178 12.1190548,10.2888178 Z" id="Shape"></path>
            </g>
        </g>
    </g>
</svg>