<?xml version="1.0" encoding="UTF-8"?>
<svg width="34px" height="31px" viewBox="0 0 34 31" version="1.1" xmlns="http://www.w3.org/2000/svg" xmlns:xlink="http://www.w3.org/1999/xlink">
    <!-- Generator: Sketch 42 (36781) - http://www.bohemiancoding.com/sketch -->
    <title>网校平台</title>
    <desc>Created with Sketch.</desc>
    <defs></defs>
    <g id="首页" stroke="none" stroke-width="1" fill="none" fill-rule="evenodd">
        <g id="首页概览" transform="translate(-575.000000, -13.000000)" fill-rule="nonzero" fill="#FFFFFF">
            <g id="网校平台" transform="translate(575.000000, 13.000000)">
                <path d="M33.1513952,28.9989726 L30.7907923,28.9989726 L30.7907923,8.00725647 C30.7907923,7.57759986 30.5510897,7.18422536 30.1305131,6.92331371 C29.8063923,6.72132639 29.3872913,6.61318152 28.951726,6.61318152 L22.5541939,6.61318156 L22.5541939,1.61692801 C22.5541939,1.16229092 22.3311885,0.728113681 21.9407446,0.427022791 C21.5954999,0.160772093 21.1477417,0.0125259423 20.6775006,0.0125259423 L4.86322373,0.0125259423 C4.39438047,0.0125259423 3.9451856,0.160772093 3.60001847,0.427022791 C3.20961343,0.728113681 2.98649158,1.16229092 2.98649158,1.61692801 L2.98649158,28.8522464 C2.98649158,28.8937896 2.98047282,28.9354497 2.98346277,28.9755121 L0.814295788,28.975512 C0.366576502,28.975512 0.00331420313,29.5292527 0.00331420313,29.9762904 C0.00331420313,30.424848 0.366576464,30.9967492 0.814295788,30.9967492 L33.1513953,30.9967492 C33.5991145,30.9967492 33.9624157,30.4709898 33.9624157,30.0216528 C33.9623768,29.5753555 33.5991145,28.9989726 33.1513952,28.9989726 L33.1513952,28.9989726 Z M28.6563012,8.27880725 C28.9170501,8.27880725 29.0903909,8.35597006 29.1552772,8.4058921 L29.1251056,29.0057147 L22.6372529,28.9982712 C22.6417573,28.956689 22.6447085,28.9180686 22.6447085,28.8772269 L22.5965194,8.27884625 L28.6563012,8.27884621 L28.6563012,8.27880725 Z M4.70797814,28.8718878 L4.63412194,3.11158741 C4.63412194,3.02234355 4.64313069,1.56244639 6.17768571,1.56244639 L20.0700701,1.56244639 C20.3972197,1.56244639 20.8328238,1.71677204 20.8328238,1.8060159 L20.8328238,28.8718878 C20.8328238,28.9043897 20.8026911,28.9490506 20.7498424,28.9928932 L4.79088194,28.9928931 C4.73659646,28.9490896 4.70797814,28.9043897 4.70797814,28.8718878 L4.70797814,28.8718878 Z" id="Shape"></path>
                <path d="M17.6219813,4.55792257 L7.93683812,4.55792257 C7.57054705,4.55792257 7.27508337,4.88695574 7.27508337,5.29167083 C7.27508337,5.69486604 7.57054705,6.02315875 7.93683812,6.02315875 L17.6219813,6.02315875 C17.986758,6.02315875 18.2837361,5.69486604 18.2837361,5.29167083 C18.2837361,4.88695577 17.9867192,4.55792257 17.6219813,4.55792257 L17.6219813,4.55792257 Z" id="Shape"></path>
                <path d="M17.6219813,9.88394974 L7.93683812,9.88394974 C7.57054705,9.88394974 7.27508337,10.2107226 7.27508337,10.6153987 C7.27508337,11.0193733 7.57054705,11.3491859 7.93683812,11.3491859 L17.6219813,11.3491859 C17.986758,11.3491859 18.2837361,11.0193733 18.2837361,10.6153987 C18.2837361,10.2107226 17.9867192,9.88394974 17.6219813,9.88394974 L17.6219813,9.88394974 Z" id="Shape"></path>
                <path d="M17.6219813,15.6887761 L7.93683812,15.6887761 C7.57054705,15.6887761 7.27508337,16.0156269 7.27508337,16.4210434 C7.27508337,16.8249791 7.57054705,17.1532329 7.93683812,17.1532329 L17.6219813,17.1532329 C17.986758,17.1532329 18.2837361,16.8249791 18.2837361,16.4210434 C18.2837361,16.0156269 17.9867192,15.6887761 17.6219813,15.6887761 L17.6219813,15.6887761 Z" id="Shape"></path>
                <path d="M17.6219813,21.4021372 L7.93683812,21.4021372 C7.57054705,21.4021372 7.27508337,21.7289101 7.27508337,22.1328457 C7.27508337,22.5375219 7.57054705,22.8658535 7.93683812,22.8658535 L17.6219813,22.8658535 C17.986758,22.8658535 18.2837361,22.5375218 18.2837361,22.1328457 C18.2837361,21.7289101 17.9867192,21.4021372 17.6219813,21.4021372 L17.6219813,21.4021372 Z" id="Shape"></path>
            </g>
        </g>
    </g>
</svg>