<?xml version="1.0" encoding="UTF-8"?>
<svg width="18px" height="15px" viewBox="0 0 18 15" version="1.1" xmlns="http://www.w3.org/2000/svg" xmlns:xlink="http://www.w3.org/1999/xlink">
    <!-- Generator: Sketch 42 (36781) - http://www.bohemiancoding.com/sketch -->
    <title>Shape Copy 4</title>
    <desc>Created with Sketch.</desc>
    <defs></defs>
    <g id="首页" stroke="none" stroke-width="1" fill="none" fill-rule="evenodd">
        <g id="首页概览" transform="translate(-15.000000, -293.000000)" fill-rule="nonzero" fill="#6C798E">
            <path d="M28.8316213,296.813253 C27.7604647,294.453528 25.7676151,293 23.5775565,293 C22.1202853,293 20.7128353,293.655766 19.6146922,294.848537 C18.6182674,295.930293 17.9373772,297.383821 17.6716639,298.981928 C16.1022949,299.54475 15,301.336489 15,303.399312 C15,305.686747 16.3680082,307.607573 18.138738,307.945783 L18.138738,308 L28.4953279,308 C30.9801622,308 32.9999982,305.487952 32.9999982,302.39759 C33.0020741,299.449225 31.1586883,297.027539 28.8316213,296.813253 Z M28.4974038,307 L18.6992269,307 L18.6639369,306.9973 C17.2149692,306.973001 16.0358666,305.423261 16.0358666,303.536033 C16.0358666,301.862098 16.9513318,300.431153 18.2155458,300.128764 L18.5809015,300.039668 L18.6348745,299.561786 C18.8050971,298.030945 19.3946484,296.626999 20.2955825,295.601038 C21.2048201,294.569678 22.3714674,294 23.5796324,294 C25.2195815,294 26.7245981,295.02866 27.6545945,296.734995 C26.5564514,297.013084 25.5579508,297.812253 24.8812123,298.997508 C24.7109897,299.294496 24.7587351,299.71568 24.9891583,299.937072 C25.2175056,300.158463 25.5413437,300.096366 25.7115663,299.799377 C26.3737735,298.638422 27.3909572,297.971547 28.4974038,297.971547 C30.4113697,297.971547 31.9682834,299.996469 31.9682834,302.485774 C31.9682834,304.975078 30.4113697,307 28.4974038,307 Z" id="Shape-Copy-4"></path>
        </g>
    </g>
</svg>