<?xml version="1.0" encoding="UTF-8"?>
<svg width="72px" height="72px" viewBox="0 0 72 72" version="1.1" xmlns="http://www.w3.org/2000/svg" xmlns:xlink="http://www.w3.org/1999/xlink">
    <!-- Generator: Sketch 42 (36781) - http://www.bohemiancoding.com/sketch -->
    <title>注册成功</title>
    <desc>Created with Sketch.</desc>
    <defs></defs>
    <g id="登录" stroke="none" stroke-width="1" fill="none" fill-rule="evenodd">
        <g id="注册成功" transform="translate(-721.000000, -315.000000)" fill-rule="nonzero" fill="#4F9DFF">
            <g transform="translate(721.000000, 315.000000)" id="Shape">
                <path d="M55.938,22.9676 C55.8259094,22.8553857 55.6738076,22.7923339 55.5152,22.7923339 C55.3565924,22.7923339 55.2044907,22.8553857 55.0924,22.9676 L29.1868,48.8736 L17.7404,37.4268 C17.4327586,37.1196 16.9344413,37.1196 16.6268,37.4268 C16.3196,37.7344414 16.3196,38.2327586 16.6268,38.5404 L28.6472,50.5604 C28.8092,50.7228 29.0244,50.7967999 29.2368,50.7884 C29.3704,50.796 29.5004,50.7552 29.614,50.674 C29.6292,50.6644 29.6436,50.6548 29.6576,50.6444 C29.6696,50.6348 29.684,50.6308 29.6952,50.62 L29.726,50.5892 C29.7376,50.5788 29.75,50.5716 29.7608,50.5604 C29.7716,50.55 29.7788,50.5375999 29.7888,50.526 L56.22,24.0952 C56.3322143,23.9831094 56.3952661,23.8310076 56.3952661,23.6724 C56.3952661,23.5137924 56.3322143,23.3616906 56.22,23.2496 L55.938,22.9676 L55.938,22.9676 Z M36,70.4 C17.0012,70.4 1.60000003,54.9984 1.60000003,36 C1.60000003,17.0012 17.0012,1.60000003 36,1.60000003 C54.9984,1.60000003 70.4,17.0012 70.4,36 C70.4,54.9984 54.9984,70.4 36,70.4 L36,70.4 Z M36,0 C16.1176,0 0,16.1176 0,36 C0,55.8824 16.1176,72 36,72 C55.882,72 72,55.8824 72,36 C72,16.1176 55.882,0 36,0 Z"></path>
            </g>
        </g>
    </g>
</svg>