<?xml version="1.0" encoding="UTF-8"?>
<svg width="17px" height="15px" viewBox="0 0 17 15" version="1.1" xmlns="http://www.w3.org/2000/svg" xmlns:xlink="http://www.w3.org/1999/xlink">
    <!-- Generator: Sketch 42 (36781) - http://www.bohemiancoding.com/sketch -->
    <title>用户管理</title>
    <desc>Created with Sketch.</desc>
    <defs></defs>
    <g id="首页" stroke="none" stroke-width="1" fill="none" fill-rule="evenodd">
        <g id="首页概览" transform="translate(-15.000000, -173.000000)" fill-rule="nonzero" fill="#6C798E">
            <path d="M26.7719325,178.557665 C26.7719325,178.7652 26.9401823,178.935156 27.1476837,178.935156 L31.3555688,178.935156 C31.5630703,178.935156 31.7312532,178.7652 31.7312532,178.557665 C31.7312532,178.350197 31.5631037,178.180241 31.3555688,178.180241 L27.1476837,178.180241 C26.9401823,178.180241 26.7719325,178.35023 26.7719325,178.557665 L26.7719325,178.557665 Z M31.2873721,179.739931 L26.3159715,179.739931 C26.0707912,179.739931 25.87199,179.909821 25.87199,180.117355 C25.87199,180.324857 26.0707577,180.49478 26.3159715,180.49478 L31.2873721,180.49478 C31.5325524,180.49478 31.7312532,180.324857 31.7312532,180.117355 C31.7312532,179.909821 31.5325524,179.739931 31.2873721,179.739931 L31.2873721,179.739931 Z M31.3555688,181.299555 L27.1476837,181.299555 C26.9401823,181.299555 26.7719325,181.469511 26.7719325,181.677046 C26.7719325,181.884481 26.9401823,182.054437 27.1476837,182.054437 L31.3555688,182.054437 C31.5630703,182.054437 31.7312532,181.884481 31.7312532,181.677046 C31.7312532,181.469511 31.5630703,181.299555 31.3555688,181.299555 Z M23.0654506,188 L20.0758708,188 C17.2400181,188 15,188 15,186.529086 L15,186.234983 C15,183.478236 17.2771616,181.23611 20.0758708,181.23611 L23.0654506,181.23611 C25.8637917,181.23611 28.1413214,183.478604 28.1413214,186.234983 L28.1413214,186.529086 C28.1409533,188 25.7885344,188 23.0654506,188 Z M20.048398,182.065546 C17.6942391,182.065546 15.778741,183.945775 15.778741,186.25747 L15.778741,186.55686 C15.778741,187.156275 18.2463046,187.156275 20.048398,187.156275 L23.0924883,187.156275 C24.5842833,187.156275 27.3621454,187.156275 27.3621454,186.55686 L27.3621454,186.25747 C27.3621454,183.945775 25.4465469,182.065546 23.0924883,182.065546 L20.048398,182.065546 L20.048398,182.065546 Z M21.4210663,180.940702 C19.1989841,180.940702 17.3923063,179.159456 17.3923063,176.970167 C17.3923063,174.780811 19.1989841,173 21.4210663,173 C23.6433492,173 25.4498262,174.780878 25.4498262,176.970167 C25.4498262,179.159456 23.6424457,180.940702 21.4210663,180.940702 L21.4210663,180.940702 Z M18.2221446,176.958054 C18.2221446,178.689072 19.6573209,180.097479 21.4210663,180.097479 C23.1852466,180.097479 24.6200213,178.689441 24.6200213,176.958054 C24.6200213,175.226733 23.1849119,173.818996 21.4210663,173.818996 C19.6568859,173.818996 18.2221446,175.227135 18.2221446,176.958054 L18.2221446,176.958054 Z" id="用户管理"></path>
        </g>
    </g>
</svg>